<?xml version="1.0" standalone="no"?>
<!DOCTYPE svg PUBLIC "-//W3C//DTD SVG 20010904//EN"
 "http://www.w3.org/TR/2001/REC-SVG-20010904/DTD/svg10.dtd">
<svg version="1.0" xmlns="http://www.w3.org/2000/svg"
 width="612.000000pt" height="612.000000pt" viewBox="0 0 612.000000 612.000000"
 preserveAspectRatio="xMidYMid meet">
<metadata>
Created by potrace 1.14, written by Peter Selinger 2001-2017
</metadata>
<g transform="translate(0.000000,612.000000) scale(0.100000,-0.100000)"
fill="#000000" stroke="none">
<path d="M3060 6095 c0 -8 -4 -15 -9 -15 -14 0 -79 -141 -93 -202 -7 -32 -15
-58 -18 -59 -3 0 -27 -1 -55 -2 -47 -2 -50 -3 -47 -27 4 -35 4 -83 -2 -162 -4
-60 9 -128 24 -128 3 0 12 14 20 31 27 54 47 30 49 -58 l1 -43 -87 -1 c-49 -1
-243 -3 -433 -5 -190 -1 -352 -4 -360 -6 -9 -2 -33 -14 -54 -26 -37 -22 -37
-23 -32 -67 4 -25 3 -45 -1 -46 -4 0 -15 -2 -23 -4 -29 -7 -55 -13 -102 -24
-53 -12 -98 -31 -98 -41 0 -4 -6 -7 -13 -7 -21 0 -131 -71 -167 -108 -32 -33
-33 -60 -2 -51 37 11 122 16 122 7 0 -5 -3 -11 -8 -13 -14 -6 -112 -124 -112
-135 0 -20 31 -23 62 -7 35 18 130 50 170 58 83 15 221 33 270 35 26 1 49 30
40 49 -5 9 -6 26 -3 37 6 20 15 20 416 20 l409 0 1 -118 c0 -96 -3 -120 -15
-126 -8 -4 -310 -6 -670 -6 -360 1 -657 -2 -660 -6 -3 -4 -5 -210 -4 -458 l1
-451 -31 -1 c-17 0 -71 -2 -120 -5 -101 -6 -156 1 -156 20 0 8 14 19 30 26 17
7 30 16 30 20 0 19 -140 29 -190 14 -34 -9 -96 -7 -119 6 -22 11 -28 -2 -27
-63 1 -20 -3 -37 -9 -38 -78 -6 -255 -71 -298 -110 -17 -15 -14 -18 50 -52 69
-36 186 -72 249 -76 6 -1 9 -17 8 -37 -2 -20 1 -45 6 -55 9 -16 14 -17 55 -5
36 11 51 11 81 1 20 -7 55 -11 78 -9 120 8 151 24 92 45 -82 30 -29 45 179 51
l90 3 1 -200 c1 -189 10 -350 21 -368 2 -4 6 -22 8 -40 16 -154 107 -443 204
-647 105 -222 248 -427 418 -597 96 -95 244 -215 322 -261 25 -14 52 -32 59
-39 13 -12 27 -17 45 -14 4 0 7 -3 7 -8 0 -8 81 -50 205 -106 l61 -27 -2 -107
c-1 -58 -2 -109 -3 -112 -1 -7 -119 -3 -161 5 -14 2 -61 7 -104 11 -44 3 -83
8 -87 11 -5 2 -28 5 -53 6 -28 0 -47 6 -50 14 -3 8 0 13 6 11 7 -1 12 11 12
28 1 31 -5 34 -102 48 -45 7 -49 13 -27 37 11 12 15 24 9 29 -14 13 -75 31
-85 25 -5 -3 -9 0 -9 7 0 7 -2 10 -6 7 -3 -3 -28 3 -55 13 -28 11 -54 17 -59
14 -5 -3 -12 0 -15 5 -7 11 -47 30 -73 36 -8 1 -38 14 -68 28 -30 14 -60 26
-67 26 -15 0 -82 -71 -79 -82 1 -5 -1 -7 -6 -6 -4 2 -24 -7 -46 -20 -37 -22
-38 -24 -21 -42 9 -10 37 -27 61 -37 24 -10 44 -20 44 -23 0 -14 -79 -81 -120
-102 -51 -26 -63 -52 -28 -64 13 -4 27 -7 31 -6 5 1 6 -2 3 -7 -4 -5 30 -22
74 -38 44 -15 80 -30 80 -33 0 -3 -14 -14 -32 -24 l-31 -19 21 -18 c12 -9 48
-25 79 -34 32 -9 68 -22 80 -27 11 -6 27 -7 34 -3 7 5 10 4 6 -3 -5 -6 9 -13
35 -17 76 -13 92 -16 138 -26 25 -6 68 -13 95 -15 59 -6 100 -11 135 -18 43
-9 190 -17 322 -19 l128 -2 0 -120 c0 -137 -7 -158 -39 -124 -11 12 -21 27
-21 32 0 17 -23 1 -27 -19 -9 -52 -8 -115 2 -150 8 -30 8 -49 -1 -81 -14 -47
-19 -44 55 -47 38 -1 41 -5 70 -101 20 -68 87 -195 102 -195 8 0 66 79 68 93
0 4 7 20 15 35 7 15 19 54 26 87 7 33 17 64 21 69 4 5 30 9 58 9 55 0 58 4 40
55 -8 23 -8 41 1 68 16 47 14 124 -3 166 l-14 33 -17 -32 c-16 -33 -45 -45
-47 -20 0 6 -3 64 -5 127 l-5 116 73 1 c92 2 283 13 323 18 17 3 55 7 85 10
103 10 177 21 230 35 19 4 59 11 88 15 28 4 50 10 48 13 -2 4 6 7 17 8 49 2
199 50 205 66 2 5 7 6 12 3 8 -5 67 21 75 34 2 5 -11 17 -30 27 -19 10 -35 21
-35 24 0 3 25 14 55 24 30 11 52 23 48 29 -3 6 -1 7 5 4 15 -10 90 32 95 53 5
20 -37 45 -56 34 -7 -4 -9 -3 -4 1 7 9 -72 61 -86 57 -5 -1 -6 2 -3 7 3 5 -1
14 -9 21 -21 18 -19 27 13 39 53 23 82 42 82 57 0 13 -12 19 -33 15 -5 -1 -6
2 -3 7 5 8 -50 46 -57 40 -2 -2 -18 14 -36 34 -18 21 -42 38 -53 38 -10 0 -16
-4 -13 -10 3 -5 0 -7 -9 -4 -8 3 -24 -4 -35 -15 -12 -12 -22 -20 -24 -18 -3 3
-150 -56 -157 -63 -3 -3 -16 -7 -30 -8 -14 -2 -27 -8 -28 -13 -2 -5 -7 -7 -11
-4 -13 8 -106 -32 -107 -46 0 -8 6 -21 14 -31 12 -15 8 -17 -45 -29 -85 -18
-92 -23 -86 -63 4 -32 3 -34 -34 -41 -21 -5 -42 -9 -48 -10 -18 -4 -109 -14
-180 -21 -38 -3 -83 -9 -100 -13 -16 -4 -57 -6 -90 -6 l-60 1 -3 111 c-3 108
-2 111 23 127 14 9 25 14 25 11 0 -3 15 2 33 12 17 9 34 17 37 18 37 5 340
190 340 207 0 5 4 7 9 4 5 -4 11 -3 13 1 1 5 28 28 58 53 115 93 340 337 340
368 0 7 4 12 9 12 9 0 99 133 134 200 11 19 35 63 53 98 19 34 32 62 28 62 -3
0 3 15 14 33 58 93 175 457 207 637 3 19 8 49 11 65 3 17 7 134 9 260 3 127 5
232 5 236 0 4 203 5 268 1 33 -3 27 -20 -15 -44 l-36 -22 29 -8 c43 -13 113
-15 159 -5 56 13 78 14 90 7 6 -4 20 -10 32 -12 24 -6 33 7 33 50 0 39 12 52
51 56 78 8 269 86 271 111 1 23 -147 86 -257 109 l-59 12 3 46 c1 25 -2 49 -7
52 -5 3 -30 0 -54 -8 -39 -11 -49 -11 -73 2 -49 25 -231 4 -203 -23 3 -4 15
-7 26 -8 11 0 25 -9 31 -19 9 -15 6 -18 -22 -23 -51 -10 -258 -11 -264 -2 -2
4 -5 214 -5 466 l0 457 -662 -1 c-363 0 -667 1 -673 3 -10 3 -13 38 -13 129
l0 125 411 -4 c445 -4 435 -3 419 -59 -11 -38 1 -46 80 -54 36 -3 79 -8 95
-10 17 -3 46 -7 65 -10 79 -11 181 -40 233 -67 30 -15 42 -17 53 -8 18 15 10
30 -55 100 -28 30 -50 59 -51 63 0 7 61 3 117 -9 37 -7 38 17 2 50 -38 35
-108 84 -154 106 -16 8 -32 18 -35 22 -6 7 -99 33 -153 42 -65 11 -68 14 -65
63 3 46 3 46 -46 72 l-48 25 -327 2 c-179 0 -375 2 -434 3 l-108 1 2 55 c3 69
14 87 35 60 8 -11 19 -27 25 -35 7 -13 10 -13 18 0 18 26 24 110 11 155 -8 28
-9 58 -4 82 4 21 8 43 8 48 1 6 -21 11 -47 12 -27 1 -51 4 -54 7 -3 2 -7 22
-10 43 -3 21 -10 44 -15 51 -6 6 -8 12 -5 12 9 0 -40 106 -69 150 -28 42 -44
51 -44 25z"/>
</g>
</svg>
